<svg width="310" height="310" viewBox="0 0 310 310" fill="none" xmlns="http://www.w3.org/2000/svg">
<g clip-path="url(#clip0_1972_425)">
<rect width="310" height="310" fill="#FB2C36"/>
<rect width="310" height="310" fill="#FB2C36"/>
<path d="M100 121.141C100 97.3187 119.319 78 143.141 78H193.5C199.584 78 204.5 82.9156 204.5 89C204.5 95.0844 199.584 100 193.5 100H143.141C131.453 100 122 109.453 122 121.141C122 131.797 129.941 140.803 140.528 142.109L172.222 146.062C193.809 148.778 210 167.1 210 188.859C210 212.681 190.681 232 166.859 232H116.5C110.416 232 105.5 227.084 105.5 221C105.5 214.916 110.416 210 116.5 210H166.859C178.547 210 188 200.547 188 188.859C188 178.203 180.059 169.197 169.472 167.891L137.778 163.938C116.191 161.222 100 142.9 100 121.141Z" fill="white"/>
</g>
<defs>
<clipPath id="clip0_1972_425">
<rect width="310" height="310" fill="white"/>
</clipPath>
</defs>
</svg>
